<svg width="28" height="44" viewBox="0 0 28 44" fill="none" xmlns="http://www.w3.org/2000/svg">
<g id="Group">
<path id="Vector" d="M26 14C26 7.37258 20.6274 2 14 2C7.37258 2 2 7.37258 2 14V22C2 28.6274 7.37258 34 14 34C20.6274 34 26 28.6274 26 22V14Z" stroke="#ED017F" stroke-width="4" stroke-linecap="round" stroke-linejoin="round"/>
<path id="Vector_2" d="M14 34V42M6 42H22" stroke="#ED017F" stroke-width="4" stroke-linecap="round" stroke-linejoin="round"/>
<path id="Vector_3" d="M14 21C17.3137 21 20 18.3137 20 15C20 11.6863 17.3137 9 14 9C10.6863 9 8 11.6863 8 15C8 18.3137 10.6863 21 14 21Z" fill="#ED017F" stroke="#ED017F" stroke-width="4" stroke-linecap="round" stroke-linejoin="round"/>
<path id="Vector_4" d="M14 29C15.1046 29 16 28.1046 16 27C16 25.8954 15.1046 25 14 25C12.8954 25 12 25.8954 12 27C12 28.1046 12.8954 29 14 29Z" fill="#ED017F"/>
</g>
</svg>
