<svg width="38" height="30" viewBox="0 0 38 30" fill="none" xmlns="http://www.w3.org/2000/svg">
<g id="Group">
<path id="Vector" fill-rule="evenodd" clip-rule="evenodd" d="M36.8033 13.8685C37.2562 13.6461 37.6023 13.2529 37.7654 12.7753C37.9285 12.2978 37.8953 11.7751 37.673 11.322L32.6543 1.06579C32.5444 0.84135 32.3913 0.640771 32.2038 0.475502C32.0163 0.310232 31.7981 0.183509 31.5616 0.102569C31.3252 0.0216277 31.0751 -0.0119464 30.8257 0.00376369C30.5762 0.0194738 30.3323 0.0841603 30.1079 0.19413L26.6898 1.86893C26.237 2.09103 25.8909 2.48375 25.7274 2.96085C25.564 3.43795 25.5966 3.96041 25.8181 4.41348L30.8387 14.6697C30.9487 14.8942 31.1018 15.0947 31.2893 15.26C31.4767 15.4253 31.695 15.552 31.9314 15.6329C32.1679 15.7139 32.418 15.7475 32.6674 15.7318C32.9168 15.716 33.1607 15.6514 33.3852 15.5414L36.8033 13.8685ZM29.4437 3.1669C29.2753 3.24938 29.1249 3.3642 29.001 3.50481C28.877 3.64543 28.782 3.80908 28.7213 3.98643C28.6606 4.16377 28.6354 4.35134 28.6472 4.53841C28.6589 4.72549 28.7075 4.90841 28.7899 5.07674C28.8724 5.24507 28.9872 5.3955 29.1278 5.51946C29.2685 5.64341 29.4321 5.73845 29.6095 5.79916C29.7868 5.85986 29.9744 5.88504 30.1614 5.87326C30.3485 5.86148 30.5315 5.81296 30.6998 5.73049C31.0397 5.56392 31.2996 5.26912 31.4222 4.91096C31.5448 4.55279 31.5201 4.1606 31.3535 3.82064C31.187 3.48069 30.8922 3.22083 30.534 3.09823C30.1758 2.97563 29.7836 3.00033 29.4437 3.1669ZM7.5628 0.643281C7.10598 0.428851 6.58271 0.404628 6.10803 0.575939C5.63336 0.747249 5.24616 1.10007 5.03157 1.55681L0.18036 11.8949C-0.0340695 12.3517 -0.0582923 12.875 0.113018 13.3497C0.284328 13.8243 0.637146 14.2115 1.09389 14.4261L4.54055 16.0438C4.99736 16.2583 5.52064 16.2825 5.99531 16.1112C6.46999 15.9399 6.85719 15.587 7.07178 15.1303L11.9249 4.79222C12.031 4.56591 12.0915 4.32091 12.1029 4.07123C12.1143 3.82154 12.0765 3.57204 11.9915 3.33699C11.9065 3.10194 11.776 2.88594 11.6075 2.70131C11.439 2.51669 11.2358 2.36707 11.0095 2.26098L7.5628 0.643281ZM3.82876 13.0825C3.99914 13.1674 4.1848 13.2174 4.37479 13.2295C4.56479 13.2416 4.75528 13.2156 4.93506 13.1529C5.11485 13.0903 5.28029 12.9923 5.42164 12.8648C5.563 12.7373 5.67742 12.5828 5.75816 12.4104C5.83891 12.238 5.88435 12.0512 5.89181 11.8609C5.89927 11.6707 5.8686 11.4809 5.8016 11.3027C5.73461 11.1245 5.63264 10.9615 5.5017 10.8233C5.37077 10.6851 5.21351 10.5745 5.03918 10.498C4.6968 10.3396 4.30567 10.3233 3.95126 10.4524C3.59685 10.5816 3.30799 10.8458 3.14779 11.1874C2.9876 11.5289 2.9691 11.9199 3.09634 12.275C3.22359 12.6301 3.48813 12.9204 3.82876 13.0825Z" fill="#ED017F"/>
<path id="Vector_2" d="M26.7602 6.02164L26.7868 6.01784H26.7925C27.0705 5.98165 27.337 5.88438 27.5729 5.73302C27.8088 5.58165 28.0083 5.37995 28.1571 5.14237L28.4331 3.88247C28.4005 3.63448 28.3193 3.39534 28.1942 3.17874C28.0691 2.96213 27.9026 2.77231 27.7041 2.62012C27.5056 2.46793 27.279 2.35637 27.0374 2.2918C26.7958 2.22723 26.5437 2.21093 26.2958 2.24383H26.2844L26.2463 2.24954L26.1188 2.26857L25.6506 2.33708C25.2548 2.39608 24.699 2.48553 24.0615 2.60353C22.8035 2.83381 21.1477 3.1859 19.7374 3.65599C18.9286 3.92624 18.1254 4.42297 17.4194 4.94064C16.6904 5.47353 15.9501 6.11109 15.2535 6.75818C14.0218 7.92074 12.845 9.1401 11.7269 10.4123C10.6669 11.6113 10.3662 13.6077 11.6946 15.0484C12.3531 15.764 13.4455 16.7385 14.9129 17.18C16.4887 17.6558 18.2739 17.4464 20.0172 16.1618L21.3894 15.2749C21.5397 15.3891 21.711 15.528 21.9033 15.6898C22.379 16.0895 22.9024 16.5634 23.3953 17.0277C23.9542 17.5553 24.5036 18.0928 25.0435 18.6397L25.1482 18.7444L25.1729 18.7711L25.1805 18.7787L25.4051 19.0109L25.6944 19.1536C26.7982 19.7055 27.9459 19.4771 28.6881 19.2297C29.4817 18.9614 30.2373 18.5236 30.8463 18.1202C31.6105 17.607 32.3339 17.0356 33.0102 16.4111L33.0483 16.375L33.0616 16.3635L33.0654 16.3597C33.4319 16.0125 33.6473 15.5338 33.6608 15.0292C33.6744 14.5245 33.4869 14.0351 33.1396 13.6686C32.7924 13.3022 32.3137 13.0887 31.8091 13.0751C31.3044 13.0616 30.815 13.249 30.4485 13.5963L30.4466 13.5982L30.4257 13.6172L30.3305 13.7048C29.8292 14.1563 29.2969 14.5722 28.7376 14.9495C28.3443 15.2252 27.9186 15.4515 27.4701 15.6232L27.4263 15.6365L27.3463 15.5566C26.9489 15.1609 26.5467 14.7701 26.1397 14.3842L26.0065 14.2567C25.468 13.7464 24.9152 13.2514 24.3488 12.7722C23.8217 12.3307 23.2203 11.8625 22.6817 11.5675C21.4769 10.9071 20.3407 11.4229 19.8288 11.7521L17.8438 13.0349L17.7905 13.0748C16.9702 13.6896 16.4145 13.6572 16.011 13.5354C15.5809 13.406 15.147 13.1072 14.7549 12.7361C15.7372 11.6268 16.7685 10.5618 17.8457 9.54443C18.4775 8.95635 19.0999 8.42727 19.6651 8.01237C20.2551 7.58225 20.6852 7.35197 20.9402 7.26823C22.0974 6.88188 23.5457 6.56786 24.7466 6.34709C25.3789 6.23131 26.0134 6.12789 26.6498 6.03687L26.7602 6.02164Z" fill="#ED017F"/>
<path id="Vector_3" fill-rule="evenodd" clip-rule="evenodd" d="M10.6136 3.31548C10.1619 3.51426 9.80515 3.88069 9.61848 4.33748C9.43182 4.79427 9.42987 5.30571 9.61305 5.76391C9.79623 6.22211 10.1502 6.59125 10.6003 6.79346C11.0505 6.99567 11.5615 7.01515 12.0257 6.84778L12.0752 6.82875L12.2237 6.77166C12.9686 6.47779 13.7172 6.19355 14.4694 5.91903C15.1108 5.68494 15.7598 5.46036 16.2965 5.29479C16.5519 5.21517 16.8103 5.14534 17.0711 5.08544L17.1758 5.10066C17.2899 5.1197 17.4384 5.14634 17.6135 5.1844C17.9618 5.26243 18.3691 5.37091 18.7668 5.48511C19.2209 5.6148 19.6727 5.75249 20.1219 5.8981L20.2075 5.92664L20.2266 5.93426H20.2323C20.709 6.08634 21.2264 6.04456 21.6726 5.81796C22.1187 5.59136 22.4576 5.19818 22.616 4.72352C22.7744 4.24886 22.7395 3.73092 22.5188 3.28181C22.2982 2.83271 21.9095 2.48858 21.437 2.32392L20.8489 4.09007L21.4389 2.32392L21.4256 2.32012L21.3989 2.3125L21.2999 2.28015C20.8069 2.11828 20.3107 1.966 19.8117 1.82339C19.3571 1.69216 18.8989 1.57412 18.4376 1.46939C17.976 1.35651 17.5041 1.29145 17.0292 1.27527C16.6733 1.27527 16.3117 1.3514 16.0757 1.40849C15.7959 1.4732 15.4857 1.56075 15.1755 1.6559C14.5009 1.86849 13.8315 2.09693 13.1677 2.34105C12.3835 2.62694 11.6031 2.92323 10.8267 3.22984L10.6707 3.29074L10.6136 3.31548ZM7.86159 14.1598L7.92058 14.215L8.09377 14.3749C8.95804 15.1772 9.82974 15.9715 10.7087 16.7577C11.4586 17.4276 12.2332 18.1051 12.8879 18.6456C13.2152 18.9178 13.5007 19.1442 13.7291 19.3155C13.8833 19.4297 13.9822 19.4963 14.0336 19.5306L19.431 21.5537C19.7456 21.6716 20.0859 21.7041 20.4171 21.648C20.7484 21.5918 21.0589 21.449 21.3171 21.2339L25.3271 17.8939C25.5181 17.7268 25.7406 17.5995 25.9815 17.5197C26.2223 17.4399 26.4768 17.409 26.7298 17.429C26.9827 17.4489 27.2292 17.5192 27.4546 17.6358C27.68 17.7524 27.8798 17.9129 28.0423 18.1079C28.2047 18.3028 28.3266 18.5283 28.4006 18.771C28.4746 19.0138 28.4994 19.2689 28.4734 19.5213C28.4474 19.7737 28.3711 20.0184 28.2492 20.241C28.1272 20.4635 27.962 20.6594 27.7632 20.8171L23.7551 24.1591C22.9803 24.8046 22.0485 25.2333 21.0543 25.4018C20.0602 25.5703 19.0391 25.4725 18.095 25.1183L12.4616 23.0058L12.3721 22.9601C11.8373 22.6937 11.0932 22.1037 10.4613 21.5784C9.68705 20.9323 8.92439 20.2725 8.17371 19.5991C7.27566 18.7959 6.38556 17.9838 5.50354 17.163L5.32464 16.9974L5.26184 16.9404C4.89312 16.5956 4.67645 16.1185 4.65949 15.614C4.64254 15.1095 4.82669 14.6189 5.17144 14.2502C5.51619 13.8815 5.99329 13.6648 6.49779 13.6479C7.00229 13.6309 7.49286 13.8151 7.86159 14.1598ZM6.43801 23.8451C6.59829 23.6532 6.79482 23.4948 7.01635 23.3789C7.23788 23.263 7.48008 23.1919 7.72911 23.1696C7.97814 23.1473 8.22912 23.1743 8.4677 23.2491C8.70628 23.3239 8.9278 23.4449 9.11959 23.6053L10.9428 25.1278C11.2154 25.3557 11.5464 25.5027 11.8982 25.5522L14.2525 25.8815C14.5 25.9162 14.7383 25.9994 14.9537 26.1262C15.1691 26.2531 15.3575 26.4211 15.508 26.6207C15.6584 26.8203 15.7681 27.0476 15.8308 27.2896C15.8934 27.5316 15.9078 27.7836 15.873 28.0311C15.8383 28.2787 15.7551 28.517 15.6283 28.7324C15.5015 28.9478 15.3334 29.1361 15.1338 29.2866C14.9342 29.4371 14.7069 29.5468 14.4649 29.6094C14.2229 29.6721 13.9709 29.6864 13.7234 29.6517L11.3711 29.3225C10.3149 29.1742 9.32131 28.7332 8.50296 28.0492L6.67971 26.5267C6.48741 26.3665 6.32859 26.17 6.21235 25.9483C6.0961 25.7267 6.02471 25.4843 6.00226 25.2351C5.97981 24.9858 6.00674 24.7346 6.08151 24.4957C6.15628 24.2569 6.27743 24.0352 6.43801 23.8432" fill="#ED017F"/>
</g>
</svg>
