<svg width="30" height="33" viewBox="0 0 30 33" fill="none" xmlns="http://www.w3.org/2000/svg">
<g id="Group 2">
<path id="Vector" d="M10 12.8161L15 11L20 12.8161V16.5856C20 17.4848 19.7414 18.3663 19.2534 19.1313C18.7653 19.8963 18.067 20.5145 17.2367 20.9168L15 22L12.7633 20.9184C11.9325 20.5159 11.2338 19.8971 10.7457 19.1315C10.2576 18.3659 9.99941 17.4838 10 16.5839V12.8161Z" fill="#ED017F"/>
<path id="Vector_2" fill-rule="evenodd" clip-rule="evenodd" d="M16.17 0.211306C15.4156 -0.0704353 14.5844 -0.0704353 13.83 0.211306L2.16333 4.5703C1.52782 4.80765 0.98017 5.23263 0.593588 5.78842C0.207006 6.34421 -8.44973e-05 7.00434 2.5863e-08 7.68055V16.5862C-6.00528e-05 19.3617 0.775618 22.0824 2.24011 24.4434C3.70461 26.8044 5.80006 28.7125 8.29167 29.9538L13.8817 32.7369C14.2289 32.9099 14.6118 33 15 33C15.3882 33 15.7711 32.9099 16.1183 32.7369L21.7083 29.9521C24.1999 28.7108 26.2954 26.8028 27.7599 24.4418C29.2244 22.0807 30.0001 19.36 30 16.5845V7.68221C30.0001 7.006 29.793 6.34587 29.4064 5.79008C29.0198 5.23429 28.4722 4.80931 27.8367 4.57196L16.17 0.211306ZM15.8783 7.57593C15.3121 7.36421 14.6879 7.36421 14.1217 7.57593L8.28833 9.7546C7.81179 9.93277 7.40118 10.2516 7.1114 10.6685C6.82161 11.0855 6.66645 11.5806 6.66667 12.0877V16.538C6.66641 18.0802 7.09726 19.592 7.91091 20.9039C8.72457 22.2159 9.88888 23.2761 11.2733 23.9658L14.0683 25.3573C14.3576 25.5014 14.6766 25.5764 15 25.5764C15.3234 25.5764 15.6424 25.5014 15.9317 25.3573L18.7267 23.9658C20.1109 23.2762 21.275 22.2163 22.0886 20.9046C22.9023 19.593 23.3333 18.0816 23.3333 16.5397V12.0877C23.3335 11.5806 23.1784 11.0855 22.8886 10.6685C22.5988 10.2516 22.1882 9.93277 21.7117 9.7546L15.8783 7.57593Z" fill="#ED017F"/>
</g>
</svg>
