<svg width="38" height="38" viewBox="0 0 38 38" fill="none" xmlns="http://www.w3.org/2000/svg">
<g id="solar:hand-money-bold">
<path id="Vector" d="M9.91166 33.8643H9.49999C8.00691 33.8643 7.26116 33.8643 6.79725 33.4004C6.33333 32.9396 6.33333 32.1923 6.33333 30.6992V28.9385C6.33333 28.1184 6.33333 27.7083 6.54391 27.3409C6.75449 26.9752 7.07274 26.7899 7.70924 26.4194C11.8987 23.9827 17.8473 22.6115 21.8167 24.9786C22.0827 25.1385 22.3234 25.3317 22.5292 25.5613C22.7419 25.7943 22.9057 26.0676 23.011 26.365C23.1163 26.6624 23.161 26.9779 23.1424 27.2928C23.1238 27.6077 23.0423 27.9157 22.9027 28.1987C22.7632 28.4816 22.5683 28.7337 22.3297 28.9401C22.1395 29.121 21.9071 29.2516 21.6537 29.3201C21.8437 29.2979 22.0257 29.2726 22.1999 29.2457C23.6423 29.0161 24.8536 28.2434 25.9619 27.4059L28.8246 25.2446C29.3353 24.8731 29.9506 24.673 30.5821 24.673C31.2136 24.673 31.8289 24.8731 32.3396 25.2446C33.2468 25.9302 33.5255 27.0591 32.9507 27.9806C32.281 29.0541 31.3373 30.4269 30.4317 31.266C29.5244 32.1052 28.1738 32.8557 27.0718 33.3877C25.8495 33.9783 24.5005 34.3171 23.1277 34.5404C20.3442 34.99 17.4436 34.9204 14.6886 34.3535C13.1168 34.0303 11.5163 33.8654 9.91166 33.8643ZM10.4278 4.09444C9.84675 4.67553 9.62983 5.47669 9.54908 6.72911C10.4772 6.7164 11.3637 6.34195 12.0199 5.68545C12.6761 5.02895 13.0502 4.14225 13.0625 3.21411C11.8117 3.29644 11.0089 3.51336 10.4278 4.09444ZM27.5722 4.09444C26.9911 3.51336 26.1899 3.29644 24.9375 3.21569C24.9502 4.14383 25.3247 5.03035 25.9812 5.68656C26.6377 6.34276 27.5244 6.71682 28.4525 6.72911C28.3702 5.47828 28.1532 4.67553 27.5722 4.09444ZM27.5722 14.9054C26.9911 15.4865 26.1899 15.7034 24.9375 15.7842C24.9502 14.8561 25.3247 13.9695 25.9812 13.3133C26.6377 12.6571 27.5244 12.2831 28.4525 12.2708C28.3702 13.5216 28.1532 14.3244 27.5722 14.9054ZM10.4278 14.9054C11.0089 15.4865 11.8101 15.7034 13.0625 15.7842C13.0498 14.8561 12.6753 13.9695 12.0188 13.3133C11.3623 12.6571 10.4756 12.2831 9.5475 12.2708C9.62983 13.5216 9.84675 14.3244 10.4278 14.9054Z" fill="#ED017F"/>
<path id="Vector_2" fill-rule="evenodd" clip-rule="evenodd" d="M9.5 9.10413C11.0747 9.10413 12.5849 8.47857 13.6984 7.36507C14.8119 6.25158 15.4375 4.74135 15.4375 3.16663H22.5625C22.5625 4.74135 23.1881 6.25158 24.3016 7.36507C25.4151 8.47857 26.9253 9.10413 28.5 9.10413V9.89579C26.9253 9.89579 25.4151 10.5213 24.3016 11.6348C23.1881 12.7483 22.5625 14.2586 22.5625 15.8333H15.4375C15.4375 14.2586 14.8119 12.7483 13.6984 11.6348C12.5849 10.5213 11.0747 9.89579 9.5 9.89579V9.10413ZM19 11.0833C19.4199 11.0833 19.8227 10.9165 20.1196 10.6195C20.4165 10.3226 20.5833 9.91989 20.5833 9.49996C20.5833 9.08003 20.4165 8.67731 20.1196 8.38037C19.8227 8.08344 19.4199 7.91663 19 7.91663C18.5801 7.91663 18.1773 8.08344 17.8804 8.38037C17.5835 8.67731 17.4167 9.08003 17.4167 9.49996C17.4167 9.91989 17.5835 10.3226 17.8804 10.6195C18.1773 10.9165 18.5801 11.0833 19 11.0833Z" fill="#ED017F"/>
</g>
</svg>
