<svg width="382" height="187" viewBox="0 0 382 187" fill="none" xmlns="http://www.w3.org/2000/svg">
<g filter="url(#filter0_d_69_491)">
<rect x="54" y="54" width="285" height="71" rx="35.5" fill="white"/>
<g clip-path="url(#clip0_69_491)">
<path fill-rule="evenodd" clip-rule="evenodd" d="M92.298 79.695C92.7506 79.5253 93.2494 79.5253 93.702 79.695L100.702 82.32C101.083 82.4629 101.412 82.7189 101.644 83.0536C101.876 83.3883 102 83.7858 102 84.193V89.556C102 91.2274 101.535 92.8658 100.656 94.2877C99.7772 95.7095 98.52 96.8585 97.025 97.606L93.671 99.282C93.4627 99.3862 93.2329 99.4404 93 99.4404C92.7671 99.4404 92.5373 99.3862 92.329 99.282L88.975 97.605C87.48 96.8575 86.2228 95.7085 85.3441 94.2867C84.4654 92.8648 84 91.2264 84 89.555V84.194C83.9997 83.7866 84.1239 83.3889 84.3559 83.054C84.5878 82.7191 84.9165 82.463 85.298 82.32L92.298 79.695ZM94 89.232C94.3813 89.0119 94.6792 88.6721 94.8477 88.2653C95.0162 87.8586 95.0457 87.4076 94.9318 86.9824C94.8178 86.5571 94.5667 86.1813 94.2175 85.9133C93.8682 85.6453 93.4403 85.5 93 85.5C92.5597 85.5 92.1318 85.6453 91.7825 85.9133C91.4333 86.1813 91.1822 86.5571 91.0682 86.9824C90.9543 87.4076 90.9838 87.8586 91.1523 88.2653C91.3208 88.6721 91.6187 89.0119 92 89.232V92.5C92 92.7652 92.1054 93.0196 92.2929 93.2071C92.4804 93.3946 92.7348 93.5 93 93.5C93.2652 93.5 93.5196 93.3946 93.7071 93.2071C93.8946 93.0196 94 92.7652 94 92.5V89.232Z" fill="#ED017F"/>
</g>
<path d="M128.878 82.954C130.294 82.954 131.416 83.29 132.244 83.962C133.072 84.628 133.486 85.756 133.486 87.346C133.486 88.21 133.324 89.005 133 89.731C132.676 90.451 132.172 91.033 131.488 91.477C130.81 91.915 129.964 92.134 128.95 92.134H127.834V95.5H125.512V82.954H128.878ZM128.788 90.244C129.574 90.244 130.165 90.01 130.561 89.542C130.963 89.068 131.164 88.378 131.164 87.472C131.164 86.842 131.086 86.332 130.93 85.942C130.774 85.546 130.516 85.252 130.156 85.06C129.802 84.868 129.328 84.772 128.734 84.772H127.834V90.244H128.788ZM135.086 86.536H137.12L137.228 88.12C137.42 87.658 137.723 87.262 138.137 86.932C138.551 86.596 139.136 86.428 139.892 86.428C140.192 86.428 140.468 86.476 140.72 86.572L140.216 88.93C140.114 88.828 139.991 88.756 139.847 88.714C139.709 88.666 139.538 88.642 139.334 88.642C138.914 88.642 138.551 88.732 138.245 88.912C137.945 89.086 137.717 89.29 137.561 89.524C137.411 89.758 137.336 89.95 137.336 90.1V95.5H135.086V86.536ZM141.977 82.684H144.497V85.078H141.977V82.684ZM142.067 86.536H144.407V95.5H142.067V86.536ZM145.654 86.536H148.174L149.722 91.018L150.118 92.494L150.478 91.018L151.972 86.536H154.348L150.892 95.5H149.29L145.654 86.536ZM157.366 95.752C156.832 95.752 156.382 95.632 156.016 95.392C155.65 95.152 155.374 94.828 155.188 94.42C155.008 94.012 154.918 93.556 154.918 93.052C154.918 92.614 155.062 92.179 155.35 91.747C155.644 91.309 156.163 90.937 156.907 90.631C157.651 90.325 158.656 90.172 159.922 90.172V89.758C159.922 89.266 159.802 88.885 159.562 88.615C159.328 88.345 158.914 88.21 158.32 88.21C157.852 88.21 157.393 88.291 156.943 88.453C156.499 88.609 156.172 88.804 155.962 89.038L155.242 87.31C155.65 87.034 156.157 86.8 156.763 86.608C157.369 86.416 158.014 86.32 158.698 86.32C159.556 86.32 160.234 86.452 160.732 86.716C161.236 86.98 161.59 87.352 161.794 87.832C161.998 88.312 162.1 88.906 162.1 89.614V95.5H160.174L160.012 94.222C159.694 94.738 159.316 95.122 158.878 95.374C158.446 95.626 157.942 95.752 157.366 95.752ZM158.32 94.024C158.596 94.024 158.887 93.913 159.193 93.691C159.499 93.469 159.742 93.19 159.922 92.854V91.576C159.838 91.564 159.694 91.558 159.49 91.558C158.884 91.558 158.341 91.66 157.861 91.864C157.387 92.062 157.15 92.386 157.15 92.836C157.15 93.262 157.243 93.568 157.429 93.754C157.621 93.934 157.918 94.024 158.32 94.024ZM168.042 95.716C167.124 95.716 166.359 95.509 165.747 95.095C165.135 94.675 164.682 94.114 164.388 93.412C164.1 92.71 163.956 91.924 163.956 91.054C163.956 90.202 164.118 89.416 164.442 88.696C164.766 87.976 165.246 87.4 165.882 86.968C166.518 86.536 167.28 86.32 168.168 86.32C168.72 86.32 169.2 86.38 169.608 86.5C170.022 86.614 170.418 86.824 170.796 87.13L170.058 89.038C169.884 88.78 169.626 88.576 169.284 88.426C168.948 88.27 168.618 88.192 168.294 88.192C166.986 88.192 166.332 89.14 166.332 91.036C166.332 92.026 166.491 92.749 166.809 93.205C167.133 93.655 167.628 93.88 168.294 93.88C168.696 93.88 169.062 93.805 169.392 93.655C169.728 93.505 169.992 93.322 170.184 93.106L170.868 94.708C170.736 94.852 170.535 95.002 170.265 95.158C170.001 95.308 169.677 95.437 169.293 95.545C168.909 95.659 168.492 95.716 168.042 95.716ZM172.563 82.684H175.083V85.078H172.563V82.684ZM172.653 86.536H174.993V95.5H172.653V86.536ZM180.686 95.752C179.966 95.752 179.336 95.557 178.796 95.167C178.262 94.777 177.848 94.228 177.554 93.52C177.266 92.806 177.122 91.978 177.122 91.036C177.122 89.536 177.425 88.375 178.031 87.553C178.643 86.731 179.54 86.32 180.722 86.32C181.34 86.32 181.859 86.473 182.279 86.779C182.699 87.085 182.972 87.52 183.098 88.084L182.936 86.77V81.82H185.06V95.5H183.098V93.664C182.93 94.306 182.639 94.816 182.225 95.194C181.811 95.566 181.298 95.752 180.686 95.752ZM181.208 93.97C181.508 93.97 181.784 93.868 182.036 93.664C182.294 93.46 182.498 93.142 182.648 92.71C182.804 92.272 182.882 91.726 182.882 91.072C182.882 90.124 182.747 89.398 182.477 88.894C182.207 88.39 181.802 88.138 181.262 88.138C180.95 88.138 180.656 88.231 180.38 88.417C180.11 88.603 179.885 88.912 179.705 89.344C179.531 89.776 179.444 90.34 179.444 91.036C179.444 91.678 179.519 92.218 179.669 92.656C179.825 93.094 180.035 93.424 180.299 93.646C180.569 93.862 180.872 93.97 181.208 93.97ZM189.323 95.752C188.789 95.752 188.339 95.632 187.973 95.392C187.607 95.152 187.331 94.828 187.145 94.42C186.965 94.012 186.875 93.556 186.875 93.052C186.875 92.614 187.019 92.179 187.307 91.747C187.601 91.309 188.12 90.937 188.864 90.631C189.608 90.325 190.613 90.172 191.879 90.172V89.758C191.879 89.266 191.759 88.885 191.519 88.615C191.285 88.345 190.871 88.21 190.277 88.21C189.809 88.21 189.35 88.291 188.9 88.453C188.456 88.609 188.129 88.804 187.919 89.038L187.199 87.31C187.607 87.034 188.114 86.8 188.72 86.608C189.326 86.416 189.971 86.32 190.655 86.32C191.513 86.32 192.191 86.452 192.689 86.716C193.193 86.98 193.547 87.352 193.751 87.832C193.955 88.312 194.057 88.906 194.057 89.614V95.5H192.131L191.969 94.222C191.651 94.738 191.273 95.122 190.835 95.374C190.403 95.626 189.899 95.752 189.323 95.752ZM190.277 94.024C190.553 94.024 190.844 93.913 191.15 93.691C191.456 93.469 191.699 93.19 191.879 92.854V91.576C191.795 91.564 191.651 91.558 191.447 91.558C190.841 91.558 190.298 91.66 189.818 91.864C189.344 92.062 189.107 92.386 189.107 92.836C189.107 93.262 189.2 93.568 189.386 93.754C189.578 93.934 189.875 94.024 190.277 94.024ZM199.477 95.752C198.757 95.752 198.127 95.557 197.587 95.167C197.053 94.777 196.639 94.228 196.345 93.52C196.057 92.806 195.913 91.978 195.913 91.036C195.913 89.536 196.216 88.375 196.822 87.553C197.434 86.731 198.331 86.32 199.513 86.32C200.131 86.32 200.65 86.473 201.07 86.779C201.49 87.085 201.763 87.52 201.889 88.084L201.727 86.77V81.82H203.851V95.5H201.889V93.664C201.721 94.306 201.43 94.816 201.016 95.194C200.602 95.566 200.089 95.752 199.477 95.752ZM199.999 93.97C200.299 93.97 200.575 93.868 200.827 93.664C201.085 93.46 201.289 93.142 201.439 92.71C201.595 92.272 201.673 91.726 201.673 91.072C201.673 90.124 201.538 89.398 201.268 88.894C200.998 88.39 200.593 88.138 200.053 88.138C199.741 88.138 199.447 88.231 199.171 88.417C198.901 88.603 198.676 88.912 198.496 89.344C198.322 89.776 198.235 90.34 198.235 91.036C198.235 91.678 198.31 92.218 198.46 92.656C198.616 93.094 198.826 93.424 199.09 93.646C199.36 93.862 199.663 93.97 199.999 93.97ZM209.863 95.734C208.897 95.734 208.099 95.53 207.469 95.122C206.839 94.708 206.377 94.156 206.083 93.466C205.795 92.776 205.651 91.996 205.651 91.126C205.651 90.238 205.813 89.431 206.137 88.705C206.467 87.973 206.947 87.394 207.577 86.968C208.207 86.536 208.957 86.32 209.827 86.32C211.123 86.32 212.05 86.695 212.608 87.445C213.166 88.189 213.445 89.302 213.445 90.784C213.445 91.072 213.433 91.396 213.409 91.756H208.009C208.045 92.482 208.246 93.043 208.612 93.439C208.984 93.829 209.527 94.024 210.241 94.024C210.613 94.024 211.012 93.943 211.438 93.781C211.864 93.613 212.179 93.412 212.383 93.178L213.103 94.888C212.257 95.452 211.177 95.734 209.863 95.734ZM211.159 90.352C211.159 89.47 211.048 88.864 210.826 88.534C210.61 88.198 210.295 88.03 209.881 88.03C209.299 88.03 208.846 88.246 208.522 88.678C208.204 89.11 208.027 89.668 207.991 90.352H211.159ZM222.624 95.734C221.658 95.734 220.86 95.53 220.23 95.122C219.6 94.708 219.138 94.156 218.844 93.466C218.556 92.776 218.412 91.996 218.412 91.126C218.412 90.238 218.574 89.431 218.898 88.705C219.228 87.973 219.708 87.394 220.338 86.968C220.968 86.536 221.718 86.32 222.588 86.32C223.884 86.32 224.811 86.695 225.369 87.445C225.927 88.189 226.206 89.302 226.206 90.784C226.206 91.072 226.194 91.396 226.17 91.756H220.77C220.806 92.482 221.007 93.043 221.373 93.439C221.745 93.829 222.288 94.024 223.002 94.024C223.374 94.024 223.773 93.943 224.199 93.781C224.625 93.613 224.94 93.412 225.144 93.178L225.864 94.888C225.018 95.452 223.938 95.734 222.624 95.734ZM223.92 90.352C223.92 89.47 223.809 88.864 223.587 88.534C223.371 88.198 223.056 88.03 222.642 88.03C222.06 88.03 221.607 88.246 221.283 88.678C220.965 89.11 220.788 89.668 220.752 90.352H223.92ZM234.99 95.698C234.432 95.698 233.904 95.632 233.406 95.5C232.914 95.368 232.482 95.197 232.11 94.987C231.738 94.777 231.444 94.558 231.228 94.33L232.146 92.44C232.284 92.62 232.494 92.812 232.776 93.016C233.058 93.22 233.379 93.394 233.739 93.538C234.105 93.682 234.468 93.754 234.828 93.754C235.302 93.754 235.698 93.625 236.016 93.367C236.34 93.103 236.502 92.734 236.502 92.26C236.502 91.954 236.427 91.69 236.277 91.468C236.133 91.24 235.938 91.039 235.692 90.865C235.452 90.685 235.08 90.442 234.576 90.136C233.886 89.716 233.346 89.359 232.956 89.065C232.566 88.765 232.227 88.375 231.939 87.895C231.657 87.409 231.516 86.824 231.516 86.14C231.516 85.474 231.657 84.886 231.939 84.376C232.227 83.86 232.65 83.458 233.208 83.17C233.766 82.882 234.438 82.738 235.224 82.738C236.502 82.738 237.57 83.128 238.428 83.908L237.42 85.744C237.318 85.6 237.165 85.444 236.961 85.276C236.757 85.102 236.511 84.955 236.223 84.835C235.935 84.709 235.632 84.646 235.314 84.646C234.852 84.646 234.492 84.781 234.234 85.051C233.982 85.315 233.856 85.648 233.856 86.05C233.856 86.356 233.931 86.629 234.081 86.869C234.237 87.103 234.438 87.313 234.684 87.499C234.936 87.685 235.272 87.904 235.692 88.156C236.454 88.606 237.036 88.984 237.438 89.29C237.84 89.596 238.176 89.986 238.446 90.46C238.722 90.928 238.86 91.504 238.86 92.188C238.86 92.914 238.704 93.541 238.392 94.069C238.08 94.597 237.633 95.002 237.051 95.284C236.469 95.56 235.782 95.698 234.99 95.698ZM244.456 95.734C243.49 95.734 242.692 95.53 242.062 95.122C241.432 94.708 240.97 94.156 240.676 93.466C240.388 92.776 240.244 91.996 240.244 91.126C240.244 90.238 240.406 89.431 240.73 88.705C241.06 87.973 241.54 87.394 242.17 86.968C242.8 86.536 243.55 86.32 244.42 86.32C245.716 86.32 246.643 86.695 247.201 87.445C247.759 88.189 248.038 89.302 248.038 90.784C248.038 91.072 248.026 91.396 248.002 91.756H242.602C242.638 92.482 242.839 93.043 243.205 93.439C243.577 93.829 244.12 94.024 244.834 94.024C245.206 94.024 245.605 93.943 246.031 93.781C246.457 93.613 246.772 93.412 246.976 93.178L247.696 94.888C246.85 95.452 245.77 95.734 244.456 95.734ZM245.752 90.352C245.752 89.47 245.641 88.864 245.419 88.534C245.203 88.198 244.888 88.03 244.474 88.03C243.892 88.03 243.439 88.246 243.115 88.678C242.797 89.11 242.62 89.668 242.584 90.352H245.752ZM251.396 97.048C251.954 97.396 252.578 97.57 253.268 97.57C254.042 97.57 254.618 97.369 254.996 96.967C255.38 96.565 255.572 95.932 255.572 95.068V93.664C255.422 94.216 255.161 94.678 254.789 95.05C254.417 95.422 253.898 95.608 253.232 95.608C252.524 95.608 251.897 95.449 251.351 95.131C250.811 94.813 250.382 94.312 250.064 93.628C249.752 92.944 249.596 92.08 249.596 91.036C249.596 89.974 249.752 89.092 250.064 88.39C250.376 87.682 250.802 87.16 251.342 86.824C251.882 86.488 252.494 86.32 253.178 86.32C253.646 86.32 254.048 86.404 254.384 86.572C254.726 86.74 254.993 86.959 255.185 87.229C255.383 87.493 255.512 87.778 255.572 88.084L255.824 86.536H257.588V95.068C257.588 95.992 257.432 96.787 257.12 97.453C256.808 98.125 256.346 98.638 255.734 98.992C255.122 99.352 254.372 99.532 253.484 99.532C252.83 99.532 252.236 99.451 251.702 99.289C251.174 99.133 250.736 98.95 250.388 98.74L251.396 97.048ZM253.682 93.844C254.21 93.844 254.621 93.598 254.915 93.106C255.209 92.608 255.356 91.906 255.356 91C255.356 90.112 255.221 89.413 254.951 88.903C254.687 88.393 254.288 88.138 253.754 88.138C253.424 88.138 253.121 88.234 252.845 88.426C252.569 88.618 252.344 88.93 252.17 89.362C252.002 89.788 251.918 90.34 251.918 91.018C251.918 91.954 252.077 92.659 252.395 93.133C252.719 93.607 253.148 93.844 253.682 93.844ZM267.301 86.536V95.5H265.267L265.222 94.339C264.958 94.753 264.631 95.086 264.241 95.338C263.857 95.59 263.365 95.716 262.765 95.716C261.877 95.716 261.214 95.434 260.776 94.87C260.338 94.306 260.119 93.502 260.119 92.458V86.536H262.369V92.26C262.369 92.782 262.462 93.193 262.648 93.493C262.84 93.787 263.143 93.934 263.557 93.934C263.839 93.934 264.091 93.865 264.313 93.727C264.541 93.583 264.721 93.385 264.853 93.133C264.985 92.875 265.051 92.584 265.051 92.26V86.536H267.301ZM269.875 86.536H271.909L272.017 88.12C272.209 87.658 272.512 87.262 272.926 86.932C273.34 86.596 273.925 86.428 274.681 86.428C274.981 86.428 275.257 86.476 275.509 86.572L275.005 88.93C274.903 88.828 274.78 88.756 274.636 88.714C274.498 88.666 274.327 88.642 274.123 88.642C273.703 88.642 273.34 88.732 273.034 88.912C272.734 89.086 272.506 89.29 272.35 89.524C272.2 89.758 272.125 89.95 272.125 90.1V95.5H269.875V86.536ZM278.638 95.752C278.104 95.752 277.654 95.632 277.288 95.392C276.922 95.152 276.646 94.828 276.46 94.42C276.28 94.012 276.19 93.556 276.19 93.052C276.19 92.614 276.334 92.179 276.622 91.747C276.916 91.309 277.435 90.937 278.179 90.631C278.923 90.325 279.928 90.172 281.194 90.172V89.758C281.194 89.266 281.074 88.885 280.834 88.615C280.6 88.345 280.186 88.21 279.592 88.21C279.124 88.21 278.665 88.291 278.215 88.453C277.771 88.609 277.444 88.804 277.234 89.038L276.514 87.31C276.922 87.034 277.429 86.8 278.035 86.608C278.641 86.416 279.286 86.32 279.97 86.32C280.828 86.32 281.506 86.452 282.004 86.716C282.508 86.98 282.862 87.352 283.066 87.832C283.27 88.312 283.372 88.906 283.372 89.614V95.5H281.446L281.284 94.222C280.966 94.738 280.588 95.122 280.15 95.374C279.718 95.626 279.214 95.752 278.638 95.752ZM279.592 94.024C279.868 94.024 280.159 93.913 280.465 93.691C280.771 93.469 281.014 93.19 281.194 92.854V91.576C281.11 91.564 280.966 91.558 280.762 91.558C280.156 91.558 279.613 91.66 279.133 91.864C278.659 92.062 278.422 92.386 278.422 92.836C278.422 93.262 278.515 93.568 278.701 93.754C278.893 93.934 279.19 94.024 279.592 94.024ZM290.555 86.32C291.449 86.32 292.121 86.605 292.571 87.175C293.027 87.739 293.255 88.54 293.255 89.578V95.5H290.951V89.776C290.951 89.266 290.843 88.861 290.627 88.561C290.411 88.255 290.093 88.102 289.673 88.102C289.391 88.102 289.127 88.174 288.881 88.318C288.641 88.462 288.449 88.663 288.305 88.921C288.161 89.173 288.089 89.458 288.089 89.776V95.5H285.785V86.536H287.873L287.918 87.715C288.536 86.785 289.415 86.32 290.555 86.32ZM302.194 94.708C301.996 94.912 301.69 95.113 301.276 95.311C300.862 95.509 300.388 95.635 299.854 95.689L299.638 96.526C299.98 96.526 300.295 96.61 300.583 96.778C300.871 96.946 301.096 97.168 301.258 97.444C301.426 97.72 301.51 98.014 301.51 98.326C301.51 99.124 301.252 99.664 300.736 99.946C300.226 100.234 299.542 100.378 298.684 100.378C298.354 100.378 298.021 100.303 297.685 100.153C297.355 100.003 297.106 99.85 296.938 99.694L297.316 98.578C297.568 98.71 297.793 98.806 297.991 98.866C298.189 98.926 298.384 98.956 298.576 98.956C298.894 98.956 299.152 98.875 299.35 98.713C299.554 98.551 299.656 98.362 299.656 98.146C299.656 97.84 299.539 97.621 299.305 97.489C299.077 97.363 298.792 97.3 298.45 97.3C298.354 97.3 298.252 97.306 298.144 97.318C298.036 97.336 297.958 97.348 297.91 97.354L298.279 95.599C297.607 95.443 297.046 95.146 296.596 94.708C296.152 94.27 295.822 93.739 295.606 93.115C295.39 92.485 295.282 91.798 295.282 91.054C295.282 90.202 295.444 89.416 295.768 88.696C296.092 87.976 296.572 87.4 297.208 86.968C297.844 86.536 298.606 86.32 299.494 86.32C300.046 86.32 300.526 86.38 300.934 86.5C301.348 86.614 301.744 86.824 302.122 87.13L301.384 89.038C301.21 88.78 300.952 88.576 300.61 88.426C300.274 88.27 299.944 88.192 299.62 88.192C298.312 88.192 297.658 89.14 297.658 91.036C297.658 92.026 297.817 92.749 298.135 93.205C298.459 93.655 298.954 93.88 299.62 93.88C300.022 93.88 300.388 93.805 300.718 93.655C301.054 93.505 301.318 93.322 301.51 93.106L302.194 94.708ZM305.761 95.752C305.227 95.752 304.777 95.632 304.411 95.392C304.045 95.152 303.769 94.828 303.583 94.42C303.403 94.012 303.313 93.556 303.313 93.052C303.313 92.614 303.457 92.179 303.745 91.747C304.039 91.309 304.558 90.937 305.302 90.631C306.046 90.325 307.051 90.172 308.317 90.172V89.758C308.317 89.266 308.197 88.885 307.957 88.615C307.723 88.345 307.309 88.21 306.715 88.21C306.247 88.21 305.788 88.291 305.338 88.453C304.894 88.609 304.567 88.804 304.357 89.038L303.637 87.31C304.045 87.034 304.552 86.8 305.158 86.608C305.764 86.416 306.409 86.32 307.093 86.32C307.951 86.32 308.629 86.452 309.127 86.716C309.631 86.98 309.985 87.352 310.189 87.832C310.393 88.312 310.495 88.906 310.495 89.614V95.5H308.569L308.407 94.222C308.089 94.738 307.711 95.122 307.273 95.374C306.841 95.626 306.337 95.752 305.761 95.752ZM306.715 94.024C306.991 94.024 307.282 93.913 307.588 93.691C307.894 93.469 308.137 93.19 308.317 92.854V91.576C308.233 91.564 308.089 91.558 307.885 91.558C307.279 91.558 306.736 91.66 306.256 91.864C305.782 92.062 305.545 92.386 305.545 92.836C305.545 93.262 305.638 93.568 305.824 93.754C306.016 93.934 306.313 94.024 306.715 94.024Z" fill="#343434"/>
</g>
<defs>
<filter id="filter0_d_69_491" x="0" y="0" width="401" height="187" filterUnits="userSpaceOnUse" color-interpolation-filters="sRGB">
<feFlood flood-opacity="0" result="BackgroundImageFix"/>
<feColorMatrix in="SourceAlpha" type="matrix" values="0 0 0 0 0 0 0 0 0 0 0 0 0 0 0 0 0 0 127 0" result="hardAlpha"/>
<feOffset dx="4" dy="4"/>
<feGaussianBlur stdDeviation="29"/>
<feColorMatrix type="matrix" values="0 0 0 0 0 0 0 0 0 0 0 0 0 0 0 0 0 0 0.12 0"/>
<feBlend mode="normal" in2="BackgroundImageFix" result="effect1_dropShadow_69_491"/>
<feBlend mode="normal" in="SourceGraphic" in2="effect1_dropShadow_69_491" result="shape"/>
</filter>
<clipPath id="clip0_69_491">
<rect width="24" height="24" fill="white" transform="translate(81 77.5)"/>
</clipPath>
</defs>
</svg>
