<svg width="134" height="31" viewBox="0 0 134 31" fill="none" xmlns="http://www.w3.org/2000/svg">
<path d="M0 30.6114V0H21.2166V6.00868H7.51232V12.2864H19.8659V18.31H7.51232V30.6114H0Z" fill="#ED017F"/>
<path d="M24.9993 30.6114V0H46.6712V6.00868H32.5116V12.2864H45.5633V18.31H32.5116V24.6027H46.6712V30.6114H24.9993Z" fill="#ED017F"/>
<path d="M70.1795 0H77.6766V19.7449C77.6766 22.0268 77.1252 24.0148 76.0224 25.7088C74.9196 27.3928 73.3817 28.6982 71.4087 29.6249C69.4358 30.5416 67.1442 31 64.5338 31C61.8931 31 59.5863 30.5416 57.6134 29.6249C55.6405 28.6982 54.1077 27.3928 53.0149 25.7088C51.9222 24.0148 51.3759 22.0268 51.3759 19.7449V0H58.8882V19.1022C58.8882 20.1585 59.1209 21.1001 59.5863 21.9272C60.0619 22.7543 60.7246 23.402 61.5744 23.8703C62.4243 24.3386 63.4108 24.5728 64.5338 24.5728C65.6569 24.5728 66.6383 24.3386 67.4781 23.8703C68.3279 23.402 68.9906 22.7543 69.4662 21.9272C69.9417 21.1001 70.1795 20.1585 70.1795 19.1022V0Z" fill="#ED017F"/>
<path d="M82.3851 30.6114V0H104.057V6.00868H89.8974V12.2864H102.949V18.31H89.8974V24.6027H104.057V30.6114H82.3851Z" fill="#ED017F"/>
<path d="M108.762 30.6114V0H121.601C123.928 0 125.936 0.413533 127.626 1.2406C129.326 2.0577 130.636 3.23353 131.557 4.76808C132.477 6.29267 132.938 8.10125 132.938 10.1938C132.938 12.3163 132.467 14.1199 131.526 15.6046C130.585 17.0794 129.25 18.2054 127.52 18.9826C125.79 19.7499 123.741 20.1336 121.373 20.1336H113.254V14.3042H119.977C121.11 14.3042 122.056 14.1598 122.815 13.8708C123.584 13.5718 124.166 13.1234 124.56 12.5256C124.955 11.9177 125.152 11.1405 125.152 10.1938C125.152 9.24719 124.955 8.46496 124.56 7.84716C124.166 7.21938 123.584 6.75104 122.815 6.44214C122.046 6.12327 121.1 5.96384 119.977 5.96384H116.274V30.6114H108.762ZM126.26 16.621L134 30.6114H125.805L118.217 16.621H126.26Z" fill="#ED017F"/>
</svg>
