<svg width="20" height="21" viewBox="0 0 20 21" fill="none" xmlns="http://www.w3.org/2000/svg">
<g id="Group 1">
<path id="Vector" d="M13.4474 15.02L10.4374 12.01C10.3274 11.9 10.1974 11.88 10.1274 11.88C10.0574 11.88 9.92736 11.9 9.81736 12.01L6.79736 15.03C6.45736 15.37 5.92736 15.92 4.15736 15.92L7.86736 19.62C8.42986 20.1818 9.19236 20.4974 9.98736 20.4974C10.7824 20.4974 11.5449 20.1818 12.1074 19.62L15.8274 15.91C14.9174 15.91 14.1574 15.73 13.4474 15.02ZM6.79736 5.97005L9.81736 8.99005C9.89736 9.07005 10.0174 9.12005 10.1274 9.12005C10.2374 9.12005 10.3574 9.07005 10.4374 8.99005L13.4274 6.00005C14.1374 5.26005 14.9474 5.09005 15.8574 5.09005L12.1374 1.38005C11.5749 0.818244 10.8124 0.502686 10.0174 0.502686C9.22236 0.502686 8.45986 0.818244 7.89736 1.38005L4.18736 5.08005C5.94736 5.08005 6.48736 5.66005 6.79736 5.97005Z" fill="#ED017F"/>
<path id="Vector_2" d="M19.1074 8.35007L16.8574 6.09007H15.5974C15.0574 6.09007 14.5174 6.31007 14.1474 6.70007L11.1474 9.70007C10.8674 9.98007 10.4974 10.1201 10.1274 10.1201C9.74636 10.1147 9.38167 9.96454 9.10736 9.70007L6.08736 6.67007C5.70736 6.29007 5.18736 6.07007 4.63736 6.07007H3.16736L0.87736 8.37007C0.315558 8.93257 0 9.69507 0 10.4901C0 11.2851 0.315558 12.0476 0.87736 12.6101L3.16736 14.9101H4.64736C5.18736 14.9101 5.70736 14.6901 6.09736 14.3101L9.11736 11.2901C9.39736 11.0101 9.76736 10.8701 10.1374 10.8701C10.5074 10.8701 10.8774 11.0101 11.1574 11.2901L14.1674 14.3001C14.5474 14.6801 15.0674 14.9001 15.6174 14.9001H16.8774L19.1274 12.6401C19.6915 12.0674 20.0061 11.2948 20.0024 10.4909C19.9986 9.6871 19.6768 8.91741 19.1074 8.35007Z" fill="#ED017F"/>
</g>
</svg>
